# Blender 4.0.2
# www.blender.org
mtllib sina2.mtl
o Cube.002
v -1.734688 0.587997 -2.335273
v -1.732266 0.487066 -4.171140
v -1.732521 0.519654 -3.977593
v -1.732921 0.547664 -3.674538
v -1.733438 0.569311 -3.282405
v -1.734040 0.583136 -2.826169
v -2.334687 0.587997 -2.336065
v -2.334040 0.583136 -2.826961
v -2.333438 0.569311 -3.283196
v -2.332921 0.547664 -3.675330
v -2.332521 0.519654 -3.978385
v -2.332266 0.487066 -4.171932
v -1.734363 -0.012003 -2.581376
v -1.767897 0.012546 -3.478259
v -1.735815 -0.010802 -2.769134
v -1.740478 -0.007315 -2.972158
v -1.747897 -0.001884 -3.170577
v -1.757345 0.004960 -3.344968
v -1.767347 0.042353 -3.895558
v -1.756479 0.051873 -4.001748
v -1.746674 0.064328 -4.097544
v -1.738893 0.078500 -4.173567
v -1.733898 0.093002 -4.222378
v -2.297912 0.042353 -3.896258
v -2.330499 0.093002 -4.223165
v -2.325632 0.078500 -4.174342
v -2.318052 0.064328 -4.098297
v -2.308500 0.051873 -4.002476
v -2.334363 -0.012003 -2.582168
v -2.298462 0.012546 -3.478959
v -2.332416 -0.010802 -2.769920
v -2.327217 -0.007315 -2.972932
v -2.319274 -0.001884 -3.171331
v -2.309366 0.004960 -3.345696
v -1.758173 0.426005 -4.239231
v -1.732257 0.483523 -4.178016
v -2.306179 0.426005 -4.239954
v -2.332257 0.483523 -4.178808
v -1.758173 0.132410 -4.239231
v -1.735219 0.080932 -4.180771
v -2.306179 0.132410 -4.239954
v -2.329288 0.080932 -4.181555
v -1.740370 0.587997 1.972689
v -1.741474 0.576100 2.810041
v -1.742411 0.542220 3.519914
v -1.743036 0.491514 3.994236
v -2.340369 0.587997 1.971897
v -2.343036 0.491514 3.993444
v -2.342410 0.542220 3.519122
v -2.341474 0.576100 2.809250
v -1.741707 -0.012003 2.986770
v -1.743138 0.039764 4.071428
v -1.742802 0.012558 3.816931
v -1.742300 -0.005620 3.436050
v -2.341707 -0.012003 2.985978
v -2.342299 -0.005620 3.435258
v -2.342802 0.012558 3.816140
v -2.343138 0.039764 4.070636
v -1.771794 0.403165 4.160758
v -1.743138 0.463927 4.071059
v -1.751580 0.432783 4.134501
v -2.314717 0.403165 4.160041
v -2.343137 0.463927 4.070267
v -2.334862 0.432783 4.133731
v -1.771794 0.100394 4.160758
v -1.743138 0.039632 4.071059
v -1.751580 0.070776 4.134501
v -2.314717 0.100394 4.160041
v -2.343137 0.039632 4.070267
v -2.334862 0.070776 4.133731
vn -0.0000 1.0000 -0.0000
vn 0.0004 0.9411 -0.3380
vn -0.0000 1.0000 -0.0099
vn -0.0000 0.9995 -0.0303
vn 0.0001 0.9985 -0.0551
vn 0.0001 0.9958 -0.0920
vn 0.0002 0.9861 -0.1660
vn 0.0013 -0.0000 -1.0000
vn -1.0000 -0.0005 -0.0015
vn -0.0004 0.9604 0.2786
vn -0.9904 -0.1378 -0.0112
vn 0.9124 -0.4084 -0.0280
vn 0.7504 -0.6593 -0.0461
vn 0.5008 -0.8634 -0.0610
vn 0.1770 -0.9817 -0.0699
vn -0.0000 -1.0000 -0.0064
vn -0.0000 -0.9999 -0.0172
vn -0.0000 -0.9996 -0.0274
vn 0.0001 -0.9992 -0.0392
vn 0.0001 -0.9984 -0.0568
vn -0.9123 -0.4085 -0.0304
vn -0.7503 -0.6593 -0.0481
vn -0.5006 -0.8634 -0.0623
vn -0.1769 -0.9817 -0.0704
vn 0.9904 -0.1379 -0.0085
vn 0.0004 -0.9586 -0.2848
vn 0.0002 -0.9831 -0.1832
vn 0.0002 -0.9917 -0.1289
vn 0.0001 -0.9960 -0.0893
vn 0.0001 -0.9975 -0.0712
vn 0.0009 0.7286 -0.6850
vn 0.0009 -0.7503 -0.6611
vn 0.9258 -0.0024 -0.3780
vn -0.9248 -0.0024 -0.3804
vn 0.0006 0.8889 -0.4580
vn -0.0000 0.9999 0.0142
vn -0.0001 0.9989 0.0477
vn -0.0001 0.9943 0.1063
vn -0.0013 -0.0000 1.0000
vn 1.0000 -0.0005 0.0012
vn -0.0000 -0.9999 0.0142
vn -0.0001 -0.9989 0.0477
vn -0.0001 -0.9943 0.1063
vn -0.0000 -1.0000 -0.0000
vn -0.0010 0.6637 0.7480
vn -0.0006 0.8977 0.4406
vn -0.0010 -0.6637 0.7480
vn -0.0006 -0.8977 0.4406
vn 0.7924 -0.0000 0.6100
vn 0.9913 -0.0000 0.1319
vn -0.9916 -0.0000 0.1293
vn -0.7940 -0.0000 0.6079
vn -0.0004 0.9412 0.3380
vt 0.681664 0.500000
vt 0.809878 0.500000
vt 0.809878 0.750000
vt 0.681664 0.750000
vt 0.396570 0.250000
vt 0.396570 0.000000
vt 0.396515 0.000000
vt 0.396515 0.250000
vt 0.667054 0.750000
vt 0.667054 0.500000
vt 0.653476 0.750000
vt 0.653476 0.500000
vt 0.625000 0.750000
vt 0.625000 0.500000
vt 0.596524 0.750000
vt 0.596524 0.500000
vt 0.582946 0.750000
vt 0.582946 0.500000
vt 0.435172 0.510832
vt 0.557503 0.510832
vt 0.557503 0.739168
vt 0.435172 0.739168
vt 0.375000 0.284941
vt 0.377660 0.271570
vt 0.385234 0.260234
vt 0.396570 0.252660
vt 0.396514 0.252671
vt 0.573304 0.252671
vt 0.584799 0.254957
vt 0.605926 0.269074
vt 0.620043 0.290201
vt 0.625000 0.315122
vt 0.625000 0.443336
vt 0.622975 0.457946
vt 0.617214 0.471524
vt 0.608195 0.483195
vt 0.596524 0.492214
vt 0.582946 0.497974
vt 0.581469 0.498179
vt 0.413723 0.498261
vt 0.375000 0.450660
vt 0.413653 0.501235
vt 0.413653 0.748764
vt 0.418752 0.749292
vt 0.418752 0.500708
vt 0.413723 0.498261
vt 0.418752 0.499499
vt 0.375501 0.456248
vt 0.418752 0.750501
vt 0.375501 0.793752
vt 0.375000 0.782877
vt 0.407877 0.750000
vt 0.342123 0.750000
vt 0.347412 0.744037
vt 0.402588 0.744037
vt 0.355453 0.740005
vt 0.394547 0.740005
vt 0.362580 0.735534
vt 0.387420 0.735534
vt 0.325660 0.750000
vt 0.325660 0.500000
vt 0.331248 0.500708
vt 0.331248 0.749292
vt 0.337290 0.502763
vt 0.337290 0.747237
vt 0.347412 0.505963
vt 0.355453 0.509995
vt 0.362580 0.514466
vt 0.407877 0.500000
vt 0.375000 0.467123
vt 0.342123 0.500000
vt 0.402588 0.505963
vt 0.394547 0.509995
vt 0.387420 0.514466
vt 0.413723 0.751739
vt 0.375000 0.799340
vt 0.412710 0.747237
vt 0.412710 0.502763
vt 0.581469 0.500000
vt 0.581469 0.750000
vt 0.581469 0.751821
vt 0.413723 0.751739
vt 0.834799 0.500000
vt 0.834799 0.750000
vt 0.875000 0.500000
vt 0.875000 0.750000
vt 0.625000 0.000000
vt 0.625000 0.250000
vt 0.584799 0.250000
vt 0.584799 0.000000
vt 0.421832 0.011891
vt 0.547987 0.011891
vt 0.547987 0.238109
vt 0.421832 0.238109
vt 0.582946 0.752025
vt 0.596524 0.757786
vt 0.608195 0.766805
vt 0.617214 0.778476
vt 0.622975 0.792054
vt 0.625000 0.806664
vt 0.625000 0.934878
vt 0.620043 0.959799
vt 0.605926 0.980926
vt 0.584799 0.995043
vt 0.573304 0.997329
vt 0.396515 0.997329
vt 0.396570 0.997340
vt 0.385234 0.989766
vt 0.377660 0.978430
vt 0.375000 0.965059
vt 0.159941 0.500000
vt 0.159941 0.750000
vt 0.146570 0.750000
vt 0.146570 0.500000
vt 0.125000 0.750000
vt 0.125000 0.500000
vt 0.375000 0.250000
vt 0.375000 0.000000
vt 0.559878 0.003483
vt 0.559878 0.246517
vt 0.573304 0.000000
vt 0.573304 0.250000
vt 0.409941 0.248259
vt 0.409941 0.003483
vt 0.409941 0.000000
vt 0.559878 0.000000
vt 0.559878 1.000000
vt 0.409941 1.000000
vt 0.559878 0.250000
s 0
usemtl Material.002
f 7/1/1 47/2/1 43/3/1 1/4/1
f 58/5/2 52/6/2 66/7/2 69/8/2
f 7/1/3 1/4/3 6/9/3 8/10/3
f 8/10/4 6/9/4 5/11/4 9/12/4
f 9/12/5 5/11/5 4/13/5 10/14/5
f 10/14/6 4/13/6 3/15/6 11/16/6
f 11/16/7 3/15/7 2/17/7 12/18/7
f 41/19/8 37/20/8 35/21/8 39/22/8
f 55/23/9 56/24/9 57/25/9 58/26/9 69/27/9 63/28/9 48/29/9 49/30/9 50/31/9 47/32/9 7/33/9 8/34/9 9/35/9 10/36/9 11/37/9 12/38/9 38/39/9 42/40/9 29/41/9
f 42/42/10 40/43/10 23/44/10 25/45/10
f 29/41/11 42/46/11 25/47/11 31/48/11
f 23/49/12 15/50/12 16/51/12 22/52/12
f 22/52/13 16/53/13 17/54/13 21/55/13
f 21/55/14 17/54/14 18/56/14 20/57/14
f 20/57/15 18/56/15 14/58/15 19/59/15
f 13/60/16 29/61/16 31/62/16 15/63/16
f 15/63/17 31/62/17 32/64/17 16/65/17
f 16/65/18 32/64/18 33/66/18 17/54/18
f 17/54/19 33/66/19 34/67/19 18/56/19
f 18/56/20 34/67/20 30/68/20 14/58/20
f 31/48/21 25/47/21 26/69/21 32/70/21
f 32/71/22 26/69/22 27/72/22 33/66/22
f 33/66/23 27/72/23 28/73/23 34/67/23
f 34/67/24 28/73/24 24/74/24 30/68/24
f 40/75/25 13/76/25 15/50/25 23/49/25
f 25/45/26 23/44/26 22/77/26 26/78/26
f 26/78/27 22/77/27 21/55/27 27/72/27
f 27/72/28 21/55/28 20/57/28 28/73/28
f 28/73/29 20/57/29 19/59/29 24/74/29
f 14/58/30 30/68/30 24/74/30 19/59/30
f 35/21/31 37/20/31 38/79/31 36/80/31
f 41/19/32 39/22/32 40/43/32 42/42/32
f 39/22/33 35/21/33 36/81/33 40/82/33
f 42/40/34 38/39/34 37/20/34 41/19/34
f 12/18/35 2/17/35 36/80/35 38/79/35
f 43/3/36 47/2/36 50/83/36 44/84/36
f 44/84/37 50/83/37 49/85/37 45/86/37
f 45/87/38 49/88/38 48/89/38 46/90/38
f 65/91/39 59/92/39 62/93/39 68/94/39
f 13/76/40 40/82/40 36/81/40 2/95/40 3/96/40 4/97/40 5/98/40 6/99/40 1/100/40 43/101/40 44/102/40 45/103/40 46/104/40 60/105/40 66/106/40 52/107/40 53/108/40 54/109/40 51/110/40
f 55/111/41 51/112/41 54/113/41 56/114/41
f 56/114/42 54/113/42 53/115/42 57/116/42
f 57/117/43 53/118/43 52/6/43 58/5/43
f 55/111/44 29/61/44 13/60/44 51/112/44
f 62/93/45 59/92/45 61/119/45 64/120/45
f 64/120/46 61/119/46 60/121/46 63/122/46
f 65/91/47 68/94/47 70/123/47 67/124/47
f 67/124/48 70/123/48 69/8/48 66/7/48
f 59/92/49 65/91/49 67/125/49 61/126/49
f 61/127/50 67/128/50 66/106/50 60/105/50
f 63/28/51 69/27/51 70/123/51 64/129/51
f 64/129/52 70/123/52 68/94/52 62/93/52
f 46/90/53 48/89/53 63/122/53 60/121/53
