# Blender 4.0.2
# www.blender.org
mtllib sina1.mtl
o Cube.003
v 2.260123 0.583596 2.366213
v 4.095992 0.482666 2.366213
v 3.902445 0.515254 2.366213
v 3.599390 0.543264 2.366213
v 3.207256 0.564910 2.366213
v 2.751020 0.578735 2.366213
v 2.260123 0.583596 1.766213
v 2.751020 0.578735 1.766213
v 3.207256 0.564910 1.766213
v 3.599390 0.543264 1.766213
v 3.902445 0.515254 1.766213
v 4.095992 0.482666 1.766213
v 2.506227 -0.016404 2.366213
v 3.403064 0.008145 2.331495
v 2.693982 -0.015202 2.364513
v 2.897000 -0.011715 2.359582
v 3.095409 -0.006284 2.351902
v 3.269787 0.000559 2.342223
v 3.820363 0.037952 2.331495
v 3.926568 0.047472 2.342223
v 4.022376 0.059928 2.351902
v 4.098410 0.074100 2.359582
v 4.147227 0.088601 2.364513
v 3.820363 0.037952 1.800930
v 4.147227 0.088601 1.767912
v 4.098410 0.074100 1.772843
v 4.022376 0.059928 1.780524
v 3.926568 0.047472 1.790202
v 2.506227 -0.016404 1.766213
v 3.403064 0.008145 1.800930
v 2.693982 -0.015202 1.767912
v 2.897000 -0.011715 1.772843
v 3.095409 -0.006284 1.780524
v 3.269787 0.000559 1.790202
v 4.164048 0.421605 2.340215
v 4.102868 0.479123 2.366213
v 4.164048 0.421605 1.792210
v 4.102868 0.479123 1.766213
v 4.164048 0.128009 2.340215
v 4.105618 0.076531 2.363247
v 4.164048 0.128009 1.792210
v 4.105618 0.076531 1.769178
v -2.047843 0.583596 2.366213
v -2.885196 0.571699 2.366213
v -3.595069 0.537819 2.366213
v -4.069392 0.487114 2.366213
v -2.047843 0.583596 1.766213
v -4.069392 0.487114 1.766213
v -3.595069 0.537819 1.766213
v -2.885196 0.571699 1.766213
v -3.061925 -0.016404 2.366213
v -4.146584 0.035364 2.366213
v -3.892087 0.008158 2.366213
v -3.511205 -0.010020 2.366213
v -3.061925 -0.016404 1.766213
v -3.511205 -0.010020 1.766213
v -3.892087 0.008158 1.766213
v -4.146584 0.035364 1.766213
v -4.235951 0.398765 2.337674
v -4.146215 0.459527 2.366213
v -4.209668 0.428382 2.357854
v -4.235951 0.398765 1.794751
v -4.146215 0.459527 1.766213
v -4.209668 0.428382 1.774571
v -4.235951 0.095994 2.337674
v -4.146215 0.035231 2.366213
v -4.209668 0.066376 2.357854
v -4.235951 0.095994 1.794751
v -4.146215 0.035231 1.766213
v -4.209668 0.066376 1.774571
vn -0.0000 1.0000 -0.0000
vn 0.3380 0.9411 -0.0000
vn 0.0099 1.0000 -0.0000
vn 0.0303 0.9995 -0.0000
vn 0.0551 0.9985 -0.0000
vn 0.0920 0.9958 -0.0000
vn 0.1660 0.9861 -0.0000
vn 1.0000 -0.0000 -0.0000
vn 0.0002 -0.0005 -1.0000
vn -0.2786 0.9604 -0.0000
vn 0.0098 -0.1378 -0.9904
vn 0.0292 -0.4084 0.9123
vn 0.0471 -0.6593 0.7504
vn 0.0617 -0.8634 0.5007
vn 0.0701 -0.9817 0.1770
vn 0.0064 -1.0000 -0.0000
vn 0.0172 -0.9999 -0.0000
vn 0.0274 -0.9996 -0.0000
vn 0.0392 -0.9992 -0.0000
vn 0.0568 -0.9984 -0.0000
vn 0.0292 -0.4085 -0.9123
vn 0.0471 -0.6593 -0.7504
vn 0.0617 -0.8634 -0.5007
vn 0.0701 -0.9817 -0.1770
vn 0.0098 -0.1379 0.9904
vn 0.2848 -0.9586 -0.0000
vn 0.1832 -0.9831 -0.0000
vn 0.1289 -0.9917 -0.0000
vn 0.0893 -0.9960 -0.0000
vn 0.0712 -0.9975 -0.0000
vn 0.6850 0.7286 -0.0000
vn 0.6611 -0.7503 -0.0000
vn 0.3792 -0.0024 0.9253
vn 0.3792 -0.0024 -0.9253
vn 0.4580 0.8889 -0.0000
vn -0.0142 0.9999 -0.0000
vn -0.0477 0.9989 -0.0000
vn -0.1063 0.9943 -0.0000
vn -1.0000 -0.0000 -0.0000
vn 0.0002 -0.0005 1.0000
vn -0.0142 -0.9999 -0.0000
vn -0.0477 -0.9989 -0.0000
vn -0.1063 -0.9943 -0.0000
vn -0.0000 -1.0000 -0.0000
vn -0.7480 0.6637 -0.0000
vn -0.4406 0.8977 -0.0000
vn -0.7480 -0.6637 -0.0000
vn -0.4406 -0.8977 -0.0000
vn -0.6090 -0.0000 0.7932
vn -0.1306 -0.0000 0.9914
vn -0.1306 -0.0000 -0.9914
vn -0.6090 -0.0000 -0.7932
vn -0.3380 0.9412 -0.0000
vt 0.681664 0.500000
vt 0.809878 0.500000
vt 0.809878 0.750000
vt 0.681664 0.750000
vt 0.396570 0.250000
vt 0.396570 0.000000
vt 0.396515 0.000000
vt 0.396515 0.250000
vt 0.667054 0.750000
vt 0.667054 0.500000
vt 0.653476 0.750000
vt 0.653476 0.500000
vt 0.625000 0.750000
vt 0.625000 0.500000
vt 0.596524 0.750000
vt 0.596524 0.500000
vt 0.582946 0.750000
vt 0.582946 0.500000
vt 0.435172 0.510832
vt 0.557503 0.510832
vt 0.557503 0.739168
vt 0.435172 0.739168
vt 0.375000 0.284941
vt 0.377660 0.271570
vt 0.385234 0.260234
vt 0.396570 0.252660
vt 0.396514 0.252671
vt 0.573304 0.252671
vt 0.584799 0.254957
vt 0.605926 0.269074
vt 0.620043 0.290201
vt 0.625000 0.315122
vt 0.625000 0.443336
vt 0.622975 0.457946
vt 0.617214 0.471524
vt 0.608195 0.483195
vt 0.596524 0.492214
vt 0.582946 0.497974
vt 0.581469 0.498179
vt 0.413723 0.498261
vt 0.375000 0.450660
vt 0.413653 0.501235
vt 0.413653 0.748764
vt 0.418752 0.749292
vt 0.418752 0.500708
vt 0.413723 0.498261
vt 0.418752 0.499499
vt 0.375501 0.456248
vt 0.418752 0.750501
vt 0.375501 0.793752
vt 0.375000 0.782877
vt 0.407877 0.750000
vt 0.342123 0.750000
vt 0.347412 0.744037
vt 0.402588 0.744037
vt 0.355453 0.740005
vt 0.394547 0.740005
vt 0.362580 0.735534
vt 0.387420 0.735534
vt 0.325660 0.750000
vt 0.325660 0.500000
vt 0.331248 0.500708
vt 0.331248 0.749292
vt 0.337290 0.502763
vt 0.337290 0.747237
vt 0.347412 0.505963
vt 0.355453 0.509995
vt 0.362580 0.514466
vt 0.407877 0.500000
vt 0.375000 0.467123
vt 0.342123 0.500000
vt 0.402588 0.505963
vt 0.394547 0.509995
vt 0.387420 0.514466
vt 0.413723 0.751739
vt 0.375000 0.799340
vt 0.412710 0.747237
vt 0.412710 0.502763
vt 0.581469 0.500000
vt 0.581469 0.750000
vt 0.581469 0.751821
vt 0.413723 0.751739
vt 0.834799 0.500000
vt 0.834799 0.750000
vt 0.875000 0.500000
vt 0.875000 0.750000
vt 0.625000 0.000000
vt 0.625000 0.250000
vt 0.584799 0.250000
vt 0.584799 0.000000
vt 0.421832 0.011891
vt 0.547987 0.011891
vt 0.547987 0.238109
vt 0.421832 0.238109
vt 0.582946 0.752025
vt 0.596524 0.757786
vt 0.608195 0.766805
vt 0.617214 0.778476
vt 0.622975 0.792054
vt 0.625000 0.806664
vt 0.625000 0.934878
vt 0.620043 0.959799
vt 0.605926 0.980926
vt 0.584799 0.995043
vt 0.573304 0.997329
vt 0.396515 0.997329
vt 0.396570 0.997340
vt 0.385234 0.989766
vt 0.377660 0.978430
vt 0.375000 0.965059
vt 0.159941 0.500000
vt 0.159941 0.750000
vt 0.146570 0.750000
vt 0.146570 0.500000
vt 0.125000 0.750000
vt 0.125000 0.500000
vt 0.375000 0.250000
vt 0.375000 0.000000
vt 0.559878 0.003483
vt 0.559878 0.246517
vt 0.573304 0.000000
vt 0.573304 0.250000
vt 0.409941 0.248259
vt 0.409941 0.003483
vt 0.409941 0.000000
vt 0.559878 0.000000
vt 0.559878 1.000000
vt 0.409941 1.000000
vt 0.559878 0.250000
s 0
usemtl Material.003
f 7/1/1 47/2/1 43/3/1 1/4/1
f 58/5/2 52/6/2 66/7/2 69/8/2
f 7/1/3 1/4/3 6/9/3 8/10/3
f 8/10/4 6/9/4 5/11/4 9/12/4
f 9/12/5 5/11/5 4/13/5 10/14/5
f 10/14/6 4/13/6 3/15/6 11/16/6
f 11/16/7 3/15/7 2/17/7 12/18/7
f 41/19/8 37/20/8 35/21/8 39/22/8
f 55/23/9 56/24/9 57/25/9 58/26/9 69/27/9 63/28/9 48/29/9 49/30/9 50/31/9 47/32/9 7/33/9 8/34/9 9/35/9 10/36/9 11/37/9 12/38/9 38/39/9 42/40/9 29/41/9
f 42/42/10 40/43/10 23/44/10 25/45/10
f 29/41/11 42/46/11 25/47/11 31/48/11
f 23/49/12 15/50/12 16/51/12 22/52/12
f 22/52/13 16/53/13 17/54/13 21/55/13
f 21/55/14 17/54/14 18/56/14 20/57/14
f 20/57/15 18/56/15 14/58/15 19/59/15
f 13/60/16 29/61/16 31/62/16 15/63/16
f 15/63/17 31/62/17 32/64/17 16/65/17
f 16/65/18 32/64/18 33/66/18 17/54/18
f 17/54/19 33/66/19 34/67/19 18/56/19
f 18/56/20 34/67/20 30/68/20 14/58/20
f 31/48/21 25/47/21 26/69/21 32/70/21
f 32/71/22 26/69/22 27/72/22 33/66/22
f 33/66/23 27/72/23 28/73/23 34/67/23
f 34/67/24 28/73/24 24/74/24 30/68/24
f 40/75/25 13/76/25 15/50/25 23/49/25
f 25/45/26 23/44/26 22/77/26 26/78/26
f 26/78/27 22/77/27 21/55/27 27/72/27
f 27/72/28 21/55/28 20/57/28 28/73/28
f 28/73/29 20/57/29 19/59/29 24/74/29
f 14/58/30 30/68/30 24/74/30 19/59/30
f 35/21/31 37/20/31 38/79/31 36/80/31
f 41/19/32 39/22/32 40/43/32 42/42/32
f 39/22/33 35/21/33 36/81/33 40/82/33
f 42/40/34 38/39/34 37/20/34 41/19/34
f 12/18/35 2/17/35 36/80/35 38/79/35
f 43/3/36 47/2/36 50/83/36 44/84/36
f 44/84/37 50/83/37 49/85/37 45/86/37
f 45/87/38 49/88/38 48/89/38 46/90/38
f 65/91/39 59/92/39 62/93/39 68/94/39
f 13/76/40 40/82/40 36/81/40 2/95/40 3/96/40 4/97/40 5/98/40 6/99/40 1/100/40 43/101/40 44/102/40 45/103/40 46/104/40 60/105/40 66/106/40 52/107/40 53/108/40 54/109/40 51/110/40
f 55/111/41 51/112/41 54/113/41 56/114/41
f 56/114/42 54/113/42 53/115/42 57/116/42
f 57/117/43 53/118/43 52/6/43 58/5/43
f 55/111/44 29/61/44 13/60/44 51/112/44
f 62/93/45 59/92/45 61/119/45 64/120/45
f 64/120/46 61/119/46 60/121/46 63/122/46
f 65/91/47 68/94/47 70/123/47 67/124/47
f 67/124/48 70/123/48 69/8/48 66/7/48
f 59/92/49 65/91/49 67/125/49 61/126/49
f 61/127/50 67/128/50 66/106/50 60/105/50
f 63/28/51 69/27/51 70/123/51 64/129/51
f 64/129/52 70/123/52 68/94/52 62/93/52
f 46/90/53 48/89/53 63/122/53 60/121/53
