# Blender 4.0.2
# www.blender.org
mtllib tun.mtl
o Cylinder
v -0.174000 1.943200 -0.840598
v -0.170043 1.970714 -3.840470
v -0.170156 1.904184 -0.840951
v -0.166199 1.931698 -3.840822
v -0.158775 1.866667 -0.841280
v -0.154818 1.894181 -3.841152
v -0.140292 1.832091 -0.841573
v -0.136335 1.859605 -3.841444
v -0.115419 1.801785 -0.841818
v -0.111462 1.829299 -3.841690
v -0.085112 1.776914 -0.842006
v -0.081155 1.804427 -3.841877
v -0.050534 1.758432 -0.842130
v -0.046577 1.785946 -3.842001
v -0.013015 1.747052 -0.842185
v -0.009058 1.774565 -3.842056
v 0.026003 1.743209 -0.842169
v 0.029960 1.770722 -3.842040
v 0.065021 1.747052 -0.842082
v 0.068978 1.774565 -3.841953
v 0.102539 1.758432 -0.841928
v 0.106496 1.785946 -3.841800
v 0.137116 1.776914 -0.841713
v 0.141073 1.804427 -3.841584
v 0.167423 1.801785 -0.841445
v 0.171380 1.829299 -3.841316
v 0.192295 1.832091 -0.841134
v 0.196252 1.859605 -3.841006
v 0.210777 1.866667 -0.840793
v 0.214734 1.894181 -3.840664
v 0.222158 1.904184 -0.840434
v 0.226115 1.931698 -3.840305
v 0.226000 1.943200 -0.840071
v 0.229957 1.970714 -3.839942
v 0.222157 1.982217 -0.839718
v 0.226114 2.009730 -3.839589
v 0.210775 2.019734 -0.839389
v 0.214732 2.047247 -3.839260
v 0.192293 2.054310 -0.839096
v 0.196250 2.081823 -3.838968
v 0.167420 2.084616 -0.838851
v 0.171377 2.112129 -3.838722
v 0.137112 2.109487 -0.838663
v 0.141069 2.137001 -3.838534
v 0.102535 2.127969 -0.838539
v 0.106492 2.155482 -3.838410
v 0.065016 2.139349 -0.838484
v 0.068973 2.166863 -3.838356
v 0.025998 2.143192 -0.838500
v 0.029955 2.170706 -3.838372
v -0.013020 2.139349 -0.838587
v -0.009063 2.166863 -3.838459
v -0.050539 2.127969 -0.838741
v -0.046582 2.155482 -3.838612
v -0.085116 2.109487 -0.838956
v -0.081159 2.137001 -3.838827
v -0.115423 2.084616 -0.839224
v -0.111466 2.112129 -3.839096
v -0.140295 2.054310 -0.839535
v -0.136338 2.081823 -3.839406
v -0.158776 2.019734 -0.839876
v -0.154820 2.047247 -3.839748
v -0.170157 1.982217 -0.840236
v -0.166200 2.009730 -3.840107
vn -0.9952 -0.0980 -0.0022
vn -0.9569 -0.2903 -0.0039
vn -0.8819 -0.4714 -0.0055
vn -0.7730 -0.6344 -0.0068
vn -0.6344 -0.7730 -0.0079
vn -0.4714 -0.8819 -0.0087
vn -0.2903 -0.9569 -0.0092
vn -0.0980 -0.9951 -0.0093
vn 0.0980 -0.9951 -0.0090
vn 0.2903 -0.9569 -0.0084
vn 0.4714 -0.8819 -0.0075
vn 0.6344 -0.7730 -0.0063
vn 0.7730 -0.6344 -0.0048
vn 0.8819 -0.4714 -0.0032
vn 0.9569 -0.2903 -0.0014
vn 0.9952 -0.0980 0.0004
vn 0.9952 0.0980 0.0022
vn 0.9569 0.2903 0.0039
vn 0.8819 0.4714 0.0055
vn 0.7730 0.6344 0.0068
vn 0.6344 0.7730 0.0079
vn 0.4714 0.8819 0.0087
vn 0.2903 0.9569 0.0092
vn 0.0980 0.9951 0.0093
vn -0.0980 0.9951 0.0090
vn -0.2903 0.9569 0.0084
vn -0.4714 0.8819 0.0075
vn -0.6344 0.7730 0.0063
vn -0.7730 0.6344 0.0048
vn -0.8819 0.4714 0.0032
vn 0.0013 0.0092 -1.0000
vn -0.9569 0.2903 0.0014
vn -0.9952 0.0980 -0.0004
vn -0.0013 -0.0092 1.0000
vt 1.000000 0.500000
vt 1.000000 1.000000
vt 0.968750 1.000000
vt 0.968750 0.500000
vt 0.937500 1.000000
vt 0.937500 0.500000
vt 0.906250 1.000000
vt 0.906250 0.500000
vt 0.875000 1.000000
vt 0.875000 0.500000
vt 0.843750 1.000000
vt 0.843750 0.500000
vt 0.812500 1.000000
vt 0.812500 0.500000
vt 0.781250 1.000000
vt 0.781250 0.500000
vt 0.750000 1.000000
vt 0.750000 0.500000
vt 0.718750 1.000000
vt 0.718750 0.500000
vt 0.687500 1.000000
vt 0.687500 0.500000
vt 0.656250 1.000000
vt 0.656250 0.500000
vt 0.625000 1.000000
vt 0.625000 0.500000
vt 0.593750 1.000000
vt 0.593750 0.500000
vt 0.562500 1.000000
vt 0.562500 0.500000
vt 0.531250 1.000000
vt 0.531250 0.500000
vt 0.500000 1.000000
vt 0.500000 0.500000
vt 0.468750 1.000000
vt 0.468750 0.500000
vt 0.437500 1.000000
vt 0.437500 0.500000
vt 0.406250 1.000000
vt 0.406250 0.500000
vt 0.375000 1.000000
vt 0.375000 0.500000
vt 0.343750 1.000000
vt 0.343750 0.500000
vt 0.312500 1.000000
vt 0.312500 0.500000
vt 0.281250 1.000000
vt 0.281250 0.500000
vt 0.250000 1.000000
vt 0.250000 0.500000
vt 0.218750 1.000000
vt 0.218750 0.500000
vt 0.187500 1.000000
vt 0.187500 0.500000
vt 0.156250 1.000000
vt 0.156250 0.500000
vt 0.125000 1.000000
vt 0.125000 0.500000
vt 0.093750 1.000000
vt 0.093750 0.500000
vt 0.062500 1.000000
vt 0.062500 0.500000
vt 0.296822 0.485388
vt 0.250000 0.490000
vt 0.203178 0.485388
vt 0.158156 0.471731
vt 0.116663 0.449553
vt 0.080294 0.419706
vt 0.050447 0.383337
vt 0.028269 0.341844
vt 0.014612 0.296822
vt 0.010000 0.250000
vt 0.014612 0.203178
vt 0.028269 0.158156
vt 0.050447 0.116663
vt 0.080294 0.080294
vt 0.116663 0.050447
vt 0.158156 0.028269
vt 0.203178 0.014612
vt 0.250000 0.010000
vt 0.296822 0.014612
vt 0.341844 0.028269
vt 0.383337 0.050447
vt 0.419706 0.080294
vt 0.449553 0.116663
vt 0.471731 0.158156
vt 0.485388 0.203178
vt 0.490000 0.250000
vt 0.485388 0.296822
vt 0.471731 0.341844
vt 0.449553 0.383337
vt 0.419706 0.419706
vt 0.383337 0.449553
vt 0.341844 0.471731
vt 0.031250 1.000000
vt 0.031250 0.500000
vt 0.000000 1.000000
vt 0.000000 0.500000
vt 0.750000 0.490000
vt 0.796822 0.485388
vt 0.841844 0.471731
vt 0.883337 0.449553
vt 0.919706 0.419706
vt 0.949553 0.383337
vt 0.971731 0.341844
vt 0.985388 0.296822
vt 0.990000 0.250000
vt 0.985388 0.203178
vt 0.971731 0.158156
vt 0.949553 0.116663
vt 0.919706 0.080294
vt 0.883337 0.050447
vt 0.841844 0.028269
vt 0.796822 0.014612
vt 0.750000 0.010000
vt 0.703178 0.014612
vt 0.658156 0.028269
vt 0.616663 0.050447
vt 0.580294 0.080294
vt 0.550447 0.116663
vt 0.528269 0.158156
vt 0.514612 0.203178
vt 0.510000 0.250000
vt 0.514612 0.296822
vt 0.528269 0.341844
vt 0.550447 0.383337
vt 0.580294 0.419706
vt 0.616663 0.449553
vt 0.658156 0.471731
vt 0.703178 0.485388
s 0
usemtl Material.004
f 1/1/1 2/2/1 4/3/1 3/4/1
f 3/4/2 4/3/2 6/5/2 5/6/2
f 5/6/3 6/5/3 8/7/3 7/8/3
f 7/8/4 8/7/4 10/9/4 9/10/4
f 9/10/5 10/9/5 12/11/5 11/12/5
f 11/12/6 12/11/6 14/13/6 13/14/6
f 13/14/7 14/13/7 16/15/7 15/16/7
f 15/16/8 16/15/8 18/17/8 17/18/8
f 17/18/9 18/17/9 20/19/9 19/20/9
f 19/20/10 20/19/10 22/21/10 21/22/10
f 21/22/11 22/21/11 24/23/11 23/24/11
f 23/24/12 24/23/12 26/25/12 25/26/12
f 25/26/13 26/25/13 28/27/13 27/28/13
f 27/28/14 28/27/14 30/29/14 29/30/14
f 29/30/15 30/29/15 32/31/15 31/32/15
f 31/32/16 32/31/16 34/33/16 33/34/16
f 33/34/17 34/33/17 36/35/17 35/36/17
f 35/36/18 36/35/18 38/37/18 37/38/18
f 37/38/19 38/37/19 40/39/19 39/40/19
f 39/40/20 40/39/20 42/41/20 41/42/20
f 41/42/21 42/41/21 44/43/21 43/44/21
f 43/44/22 44/43/22 46/45/22 45/46/22
f 45/46/23 46/45/23 48/47/23 47/48/23
f 47/48/24 48/47/24 50/49/24 49/50/24
f 49/50/25 50/49/25 52/51/25 51/52/25
f 51/52/26 52/51/26 54/53/26 53/54/26
f 53/54/27 54/53/27 56/55/27 55/56/27
f 55/56/28 56/55/28 58/57/28 57/58/28
f 57/58/29 58/57/29 60/59/29 59/60/29
f 59/60/30 60/59/30 62/61/30 61/62/30
f 4/63/31 2/64/31 64/65/31 62/66/31 60/67/31 58/68/31 56/69/31 54/70/31 52/71/31 50/72/31 48/73/31 46/74/31 44/75/31 42/76/31 40/77/31 38/78/31 36/79/31 34/80/31 32/81/31 30/82/31 28/83/31 26/84/31 24/85/31 22/86/31 20/87/31 18/88/31 16/89/31 14/90/31 12/91/31 10/92/31 8/93/31 6/94/31
f 61/62/32 62/61/32 64/95/32 63/96/32
f 63/96/33 64/95/33 2/97/33 1/98/33
f 1/99/34 3/100/34 5/101/34 7/102/34 9/103/34 11/104/34 13/105/34 15/106/34 17/107/34 19/108/34 21/109/34 23/110/34 25/111/34 27/112/34 29/113/34 31/114/34 33/115/34 35/116/34 37/117/34 39/118/34 41/119/34 43/120/34 45/121/34 47/122/34 49/123/34 51/124/34 53/125/34 55/126/34 57/127/34 59/128/34 61/129/34 63/130/34
