# Blender 4.0.2
# www.blender.org
mtllib turela.mtl
o Cube.001
v -2.014794 1.568435 1.993481
v -1.191365 2.694757 1.850618
v -2.014794 1.568435 -2.006519
v -1.191195 2.665913 -1.799725
v 1.985206 1.568435 1.993481
v 0.777417 2.691402 1.869109
v 1.985206 1.568435 -2.006519
v 0.777587 2.662558 -1.781235
vn -0.8036 0.5952 -0.0023
vn 0.0031 0.1940 -0.9810
vn 0.6762 0.7368 -0.0028
vn -0.0030 0.1175 0.9931
vn -0.0000 -1.0000 -0.0000
vn 0.0018 1.0000 -0.0079
vt 0.375000 0.000000
vt 0.625000 0.000000
vt 0.625000 0.250000
vt 0.375000 0.250000
vt 0.671560 0.453440
vt 0.375000 0.500000
vt 0.671560 0.796560
vt 0.375000 0.750000
vt 0.625000 1.000000
vt 0.375000 1.000000
vt 0.125000 0.500000
vt 0.125000 0.750000
vt 0.875000 0.500000
vt 0.875000 0.750000
s 0
usemtl Material.001
f 1/1/1 2/2/1 4/3/1 3/4/1
f 3/4/2 4/3/2 8/5/2 7/6/2
f 7/6/3 8/5/3 6/7/3 5/8/3
f 5/8/4 6/7/4 2/9/4 1/10/4
f 3/11/5 7/6/5 5/8/5 1/12/5
f 8/5/6 4/13/6 2/14/6 6/7/6
